<?xml version="1.0" standalone="no"?>
<!DOCTYPE svg PUBLIC "-//W3C//DTD SVG 1.1//EN" "http://www.w3.org/Graphics/SVG/1.1/DTD/svg11.dtd" >
<!--
2015-1-14: Created.
-->
<svg xmlns="http://www.w3.org/2000/svg">
<metadata>
Created by FontForge 20120731 at Wed Jan 14 10:44:59 2015
 By Iulian Galciuc,,,
Created by Iulian Galciuc,,, with FontForge 2.0 (http://fontforge.sf.net)
</metadata>
<defs>
<font id="font-icons" horiz-adv-x="512" >
  <font-face 
    font-family="font-icons"
    font-weight="500"
    font-stretch="normal"
    units-per-em="512"
    panose-1="2 0 6 9 0 0 0 0 0 0"
    ascent="448"
    descent="-64"
    bbox="-0.561523 -64 512.331 448.844"
    underline-thickness="25.6"
    underline-position="-51.2"
    unicode-range="U+F2DC-F326"
  />
    <missing-glyph />
    <glyph glyph-name="uniF30C" unicode="&#xf30c;" 
d="M385 232.5c0 4.66667 -1.5 8.5 -4.5 11.5l-22.75 22.5c-3.16666 3.16666 -6.91666 4.75 -11.25 4.75s-8.08334 -1.58334 -11.25 -4.75l-102 -101.75l-56.5 56.5c-3.16667 3.16667 -6.91667 4.75 -11.25 4.75s-8.08333 -1.58333 -11.25 -4.75l-22.75 -22.5
c-3 -3 -4.5 -6.83333 -4.5 -11.5c0 -4.5 1.5 -8.25 4.5 -11.25l90.5 -90.5c3.16667 -3.16666 6.91667 -4.75 11.25 -4.75c4.5 0 8.33333 1.58334 11.5 4.75l135.75 135.75c3 3 4.5 6.75 4.5 11.25zM448 192c0 -34.8333 -8.58334 -66.9583 -25.75 -96.375
c-17.1674 -29.4167 -40.4591 -52.7083 -69.875 -69.875c-29.4167 -17.1667 -61.5417 -25.75 -96.375 -25.75c-34.8333 0 -66.9583 8.58333 -96.375 25.75c-29.4167 17.1667 -52.7083 40.4583 -69.875 69.875c-17.1667 29.4167 -25.75 61.5417 -25.75 96.375
c0 34.8333 8.58334 66.9583 25.75 96.375s40.4583 52.7083 69.875 69.875s61.5417 25.75 96.375 25.75c34.8333 0 66.9583 -8.58334 96.375 -25.75c29.4167 -17.1673 52.7083 -40.459 69.875 -69.875c17.1667 -29.4168 25.75 -61.5418 25.75 -96.375z" />
    <glyph glyph-name="uniF320" unicode="&#xf320;" 
d="M376.3 159.877l-120.32 -120.32l-120.279 120.3c-12.001 11.9912 -12.001 31.4473 0 43.4482c12.002 11.9912 31.4268 11.9912 43.4385 0l46.1416 -46.1416v156.57c0 16.9678 13.752 30.7197 30.7197 30.7197s30.7197 -13.752 30.7197 -30.7197v-156.529l46.1416 46.1318
c12.001 12.001 31.4268 12.001 43.4385 0c12.001 -12.0117 12.001 -31.4678 0 -43.459z" />
    <glyph glyph-name="uniF322" unicode="&#xf322;" 
d="M376.3 180.695c-11.9912 -12.002 -31.4473 -11.9912 -43.4482 0l-46.1318 46.1416v-156.539c0 -16.9785 -13.752 -30.7197 -30.7197 -30.7197s-30.7197 13.7412 -30.7197 30.7197v156.498l-46.1416 -46.1318c-5.99023 -6 -13.8652 -9.00098 -21.7188 -9.00098
c-7.85449 0 -15.7295 3.00098 -21.7197 9.00098c-12.001 11.9912 -12.001 31.4375 0 43.4385l120.32 120.32l120.289 -120.29c11.9912 -11.9805 11.9912 -31.4365 -0.00976562 -43.4375z" />
    <glyph glyph-name="uniF323" unicode="&#xf323;" 
d="M256.008 419.52c125.456 0 227.512 -102.056 227.512 -227.52s-102.056 -227.52 -227.504 -227.52c-125.479 0 -227.535 102.056 -227.535 227.52s102.056 227.52 227.527 227.52zM193.816 235.256c-1.81641 -2.80762 -1.58398 -9.53613 0.767578 -17.8877
c0.776367 -4.44043 2.05566 -7.44043 4.06445 -9.52051c0.823242 -0.90332 1.31934 -1.95117 1.50391 -3.14355c4.82324 -31.9199 31.6396 -62.0879 55.1357 -62.0879c27.6875 0 53.96 32.792 58.96 62.1113c0.183594 1.16016 0.696289 2.18457 1.43164 2.99219
c1.99219 1.98438 3.32812 4.92871 3.93652 8.55273c3.21582 11.9355 2.25586 17.5518 1.18359 19.0078l-0.839844 1.03125c-0.904297 1.36816 -1.15234 3.0166 -0.736328 4.61621c3.66406 13.5918 7.63281 38.9043 -7.16797 55.6641
c-1.5752 2.04785 -10.0713 12.2002 -28.5518 17.6562l-10.1035 3.47949c-14.5361 4.45605 -24.3203 5.69629 -25.1123 5.7041l-0.887695 -0.191406c-1 -0.208008 -1.80078 -0.320312 -2.63281 -0.408203l-0.935547 -0.0878906l-0.0322266 0.248047l-4.04004 -0.21582
l-0.583984 -0.136719c-1.96777 -0.303711 -3.91211 -0.887695 -4.95996 -1.30371c-4.93555 -2.01562 -30.0723 -13.3838 -38.0801 -37.96c-1.01562 -2.8877 -4.02344 -14.3838 0.560547 -41.9521c0.335938 -2.20801 -0.568359 -4.32031 -2.42383 -5.66406zM141.072 108.12
c-14.6484 -21.752 -20.2881 -62.6484 -22.3604 -85.4482c38.7285 -31.4717 87.4717 -48.792 137.312 -48.792c49.8154 0 98.5518 17.3203 137.296 48.7842c-2.1123 22.8555 -7.7998 63.8799 -22.6318 85.8643c-0.552734 0.695312 -6.10449 7.34375 -18.6006 12.1279
l-2.43945 0.735352c-12.7764 5.9043 -24.0088 9.68066 -26.1201 10.3682c-2.50391 0.816406 -4.91992 1.75977 -7.80859 3.03223c-2.86328 1.41602 -5.30371 2.72754 -7.54395 4.08008l-1.05566 0.639648l0.248047 0.255859l-2.36816 1.16016
c-1.85645 0.879883 -5.83984 3.77637 -8.14355 5.88867l-2.57617 1.25586l-0.952148 -0.824219c-12.1523 -10.4482 -25.2959 -15.9678 -38.0479 -15.9678c-12.1367 0 -25.4404 6.21582 -37.4639 17.5518l-1.29688 1.21582l-1.27148 -1.20801
c-2.28809 -2.12012 -4.21582 -4.19141 -5.48047 -5.55176c-0.519531 -0.536133 -1.15137 -1.2002 -1.79199 -1.55176c-13.6475 -9.88867 -38.6152 -18.1846 -48.7197 -21.2881c-11.4883 -4.38379 -17.168 -11.04 -18.1836 -12.3281z" />
    <glyph glyph-name="uniF2F8" unicode="&#xf2f8;" 
d="M376.471 428.183c74.7217 0 135.529 -60.8076 135.529 -135.529c0 -10.3008 -1.41602 -20.751 -4.45703 -32.8584l-3.37402 -11.083c-30.1475 -120.953 -230.249 -282.715 -238.742 -289.552l-9.42676 -7.58887l-9.42676 7.58887
c-7.98145 6.35547 -195.523 158.118 -238.652 289.25l-3.2832 10.5713c-3.19238 12.6191 -4.6377 23.3418 -4.6377 33.6719c0 74.7217 60.8076 135.529 135.529 135.529c52.375 0 97.9121 -29.877 120.471 -73.457c22.5586 43.5801 68.0957 73.457 120.471 73.457z
M478.539 267.896c2.19922 8.88477 3.34375 16.9863 3.34375 24.7568c0 58.127 -47.2852 105.411 -105.412 105.411s-105.412 -47.2842 -105.412 -105.411v-7.58984h-30.1172v7.58984c0 58.0967 -47.2852 105.411 -105.412 105.411s-105.412 -47.2842 -105.412 -105.411
c0 -7.80078 1.14453 -16.1436 3.46387 -25.5098l3.01172 -9.51758c35.0273 -106.466 180.797 -234.586 219.407 -267.203c40.0566 33.6113 194.771 168.568 219.136 266.33z" />
    <glyph glyph-name="uniF30D" unicode="&#xf30d;" 
d="M256 320c-34 0 -65.7917 -5.79166 -95.375 -17.375c-29.5834 -11.5833 -53.0834 -27.2083 -70.5 -46.875c-17.4167 -19.6667 -26.125 -40.9167 -26.125 -63.75c0 -18.6667 5.95834 -36.4583 17.875 -53.375c11.9167 -16.9167 28.7083 -31.5417 50.375 -43.875
l21.75 -12.5l-6.75 -24c-4 -15.1667 -9.83333 -29.5 -17.5 -43c25.3333 10.5 48.25 24.75 68.75 42.75l10.75 9.5l14.25 -1.5c11.5 -1.33334 22.3333 -2 32.5 -2c34 -3.8147e-06 65.7917 5.79166 95.375 17.375s53.0833 27.2083 70.5 46.875
c17.4167 19.6667 26.125 40.9167 26.125 63.75s-8.70834 44.0833 -26.125 63.75c-17.4167 19.6667 -40.9167 35.2917 -70.5 46.875s-61.375 17.375 -95.375 17.375zM480 192c0 -29 -10 -55.7917 -30 -80.375c-20 -24.5833 -47.1667 -44 -81.5 -58.25
s-71.8333 -21.375 -112.5 -21.375c-11.6667 0 -23.75 0.666668 -36.25 2c-33 -29.1667 -71.3333 -49.3333 -115 -60.5c-8.16666 -2.33333 -17.6667 -4.16667 -28.5 -5.5h-1.25c-2.5 0 -4.75 0.875 -6.75 2.625s-3.33334 4.04167 -4 6.875v0.25
c-0.5 0.666666 -0.541668 1.66667 -0.125 3c0.416664 1.3333 0.583336 2.16663 0.5 2.5c-0.0833359 0.333303 0.291664 1.12497 1.125 2.375l1.5 2.25l1.75 2.125l2 2.25c1.16666 1.33333 3.75 4.20833 7.75 8.625s6.875 7.58333 8.625 9.5s4.33334 5.20833 7.75 9.875
s6.125 8.91667 8.125 12.75c2 3.83333 4.25 8.75 6.75 14.75s4.66666 12.3333 6.5 19c-26.1667 14.8334 -46.7917 33.1667 -61.875 55c-15.0833 21.8333 -22.625 45.25 -22.625 70.25c0 29 10 55.7917 30 80.375c20 24.5833 47.1667 44 81.5 58.25
s71.8333 21.375 112.5 21.375c40.6667 0 78.1667 -7.125 112.5 -21.375s61.5 -33.6667 81.5 -58.25c20 -24.5833 30 -51.375 30 -80.375z" />
    <glyph glyph-name="uniF309" unicode="&#xf309;" 
d="M385 191.75c0 4.5 -1.5 8.25 -4.5 11.25l-22.75 22.75c-3 3 -6.75 4.5 -11.25 4.5s-8.25 -1.5 -11.25 -4.5l-47.25 -47.25v125.5c0 4.33334 -1.58334 8.08334 -4.75 11.25s-6.91666 4.75 -11.25 4.75h-32c-4.33333 0 -8.08333 -1.58334 -11.25 -4.75
s-4.75 -6.91666 -4.75 -11.25v-125.5l-47.25 47.25c-3.16667 3.16667 -6.91667 4.75 -11.25 4.75s-8.08333 -1.58333 -11.25 -4.75l-22.75 -22.75c-3 -3 -4.5 -6.75 -4.5 -11.25s1.5 -8.25 4.5 -11.25l90.5 -90.5l22.75 -22.75c3 -3 6.75 -4.5 11.25 -4.5
s8.25 1.5 11.25 4.5l22.75 22.75l90.5 90.5c3 3 4.5 6.75 4.5 11.25zM448 192c0 -34.8333 -8.58334 -66.9583 -25.75 -96.375c-17.1674 -29.4167 -40.4591 -52.7083 -69.875 -69.875c-29.4167 -17.1667 -61.5417 -25.75 -96.375 -25.75
c-34.8333 0 -66.9583 8.58333 -96.375 25.75c-29.4167 17.1667 -52.7083 40.4583 -69.875 69.875c-17.1667 29.4167 -25.75 61.5417 -25.75 96.375c0 34.8333 8.58334 66.9583 25.75 96.375s40.4583 52.7083 69.875 69.875s61.5417 25.75 96.375 25.75
c34.8333 0 66.9583 -8.58334 96.375 -25.75c29.4167 -17.1673 52.7083 -40.459 69.875 -69.875c17.1667 -29.4168 25.75 -61.5418 25.75 -96.375z" />
    <glyph glyph-name="uniF315" unicode="&#xf315;" 
d="M304.5 256c153 0 159.1 -208 159.1 -208c-51.1992 93 -91.0996 101.9 -159.1 101.9v-91.9004l-151.8 134.2l151.8 143.8v-80zM47.5 192l144 135.6v-57l-82.2002 -78.5996l82.2002 -68v-58.5z" />
    <glyph glyph-name="uniF30E" unicode="&#xf30e;" 
d="M473 413.25c5.5 -4 7.75 -9.33334 6.75 -16l-64 -384c-0.833344 -4.83333 -3.5 -8.58333 -8 -11.25c-2.33334 -1.33333 -4.91666 -2 -7.75 -2c-1.83334 0 -3.83334 0.416667 -6 1.25l-113.25 46.25l-60.5 -73.75c-3 -3.83333 -7.08333 -5.75 -12.25 -5.75
c-2.16667 0 -4 0.333334 -5.5 1c-3.16667 1.16667 -5.70833 3.125 -7.625 5.875s-2.875 5.79167 -2.875 9.125v87.25l216 264.75l-267.25 -231.25l-98.75 40.5c-6.16667 2.33333 -9.5 6.91667 -10 13.75c-0.333334 6.66682 2.33333 11.5835 8 14.75l416 240
c2.5 1.5 5.16666 2.25 8 2.25c3.33334 0 6.33334 -0.916656 9 -2.75z" />
    <glyph glyph-name="uniF31F" unicode="&#xf31f;" 
d="M320 288v118c3.66666 -2.33334 6.66666 -4.66666 9 -7l102 -102c2.33997 -2.33334 4.67331 -5.33334 7 -9h-118zM288 280c0 -6.66873 2.33334 -12.3354 7 -17c4.66666 -4.66669 10.3333 -7.00002 17 -7h136v-264c0 -6.66666 -2.33334 -12.3333 -7 -17
c-4.66998 -4.66667 -10.3366 -7 -17 -7h-336c-6.66682 0 -12.3335 2.33333 -17 7c-4.66667 4.66667 -7 10.3333 -7 17v400c0 6.66666 2.33334 12.3333 7 17s10.3333 7 17 7h200v-136z" />
    <glyph glyph-name="uniF2FA" unicode="&#xf2fa;" 
d="M421.647 -33.8828v271.06h30.1172v-301.177h-391.529v301.177h30.1172v-271.06h90.3535v180.706h150.588v-180.706h90.3535zM210.823 -33.8828h90.3535v150.589h-90.3535v-150.589zM505.856 253.049l-17.8301 -24.3057l-232.026 170.466l-232.026 -170.405
l-17.8301 24.2744l249.856 183.478z" />
    <glyph glyph-name="uniF30B" unicode="&#xf30b;" 
d="M421.647 387.765h90.3525v-451.765h-512v451.765h90.3525v30.1182h90.3535v-30.1182h150.588v30.1182h90.3535v-30.1182zM361.412 387.765v-60.2354h30.1172v60.2354h-30.1172zM120.471 387.765v-60.2354h30.1172v60.2354h-30.1172zM481.883 -33.8828v268.68h-451.766
v-268.68h451.766zM30.1172 264.915h451.766v92.7324h-60.2354v-60.2354h-90.3535v60.2354h-150.588v-60.2354h-90.3535v60.2354h-60.2354v-92.7324z" />
    <glyph glyph-name="uniF2F6" unicode="&#xf2f6;" 
d="M449.75 274.5c0 -6.6687 -2.33334 -12.3354 -7 -17l-181 -181l-34 -34c-4.66667 -4.66667 -10.3333 -7 -17 -7s-12.3333 2.33333 -17 7l-34 34l-90.5 90.5c-4.66679 4.66733 -7.00012 10.334 -7 17c0 6.6674 2.33334 12.3341 7 17l34 34c4.66666 4.66667 10.3333 7 17 7
s12.3333 -2.33333 17 -7l73.5 -73.75l164 164.25c4.66666 4.66666 10.3333 7 17 7s12.3333 -2.33334 17 -7l34 -34c4.66666 -4.66776 7 -10.3344 7 -17z" />
    <glyph glyph-name="uniF301" unicode="&#xf301;" 
d="M426.586 448l85.4141 -83.6064v-383.217c0 -24.9072 -20.2695 -45.1768 -45.1768 -45.1768h-421.646c-24.9072 0 -45.1768 20.2695 -45.1768 45.1768v421.646c0 24.9072 20.2695 45.1768 45.1768 45.1768h381.409zM240.941 417.883h-120.471v-150.589h240.941v150.589
h-30.1182v-120.471h-90.3525v120.471zM90.3525 -33.8828h331.295v180.706h-331.295v-180.706zM481.883 -18.8232v370.567l-67.584 66.1387h-22.7695v-180.706h-301.177v180.706h-45.1758c-8.3125 0 -15.0596 -6.77734 -15.0596 -15.0596v-421.646
c0 -8.28223 6.74707 -15.0596 15.0596 -15.0596h15.0586v210.824h391.529v-210.824h15.0586c8.28223 0 15.0596 6.77734 15.0596 15.0596z" />
    <glyph glyph-name="uniF2F7" unicode="&#xf2f7;" 
d="M448 176c-25.3333 39.3333 -57.0833 68.75 -95.25 88.25c10.1667 -17.3333 15.25 -36.0833 15.25 -56.25c0 -30.8333 -10.9583 -57.2083 -32.875 -79.125c-21.9167 -21.9167 -48.2917 -32.875 -79.125 -32.875c-30.8333 0 -57.2083 10.9583 -79.125 32.875
c-21.9167 21.9167 -32.875 48.2917 -32.875 79.125c0 20.1667 5.08333 38.9167 15.25 56.25c-38.1667 -19.5 -69.9167 -48.9167 -95.25 -88.25c22.1667 -34.1667 49.9583 -61.375 83.375 -81.625s69.625 -30.375 108.625 -30.375s75.2083 10.125 108.625 30.375
c33.4167 20.2501 61.2083 47.4584 83.375 81.625zM268 272c0 3.33755 -1.16666 6.1709 -3.5 8.5c-2.33334 2.33334 -5.16666 3.5 -8.5 3.5c-20.8333 0 -38.7083 -7.45834 -53.625 -22.375c-14.9167 -14.9167 -22.375 -32.7917 -22.375 -53.625
c0 -3.33488 1.16667 -6.16821 3.5 -8.5c2.33333 -2.33333 5.16667 -3.5 8.5 -3.5s6.16667 1.16667 8.5 3.5s3.5 5.16667 3.5 8.5c0 14.3333 5.08333 26.5833 15.25 36.75s22.4167 15.25 36.75 15.25c3.33731 0 6.17065 1.16666 8.5 3.5c2.33334 2.3374 3.5 5.17075 3.5 8.5z
M480 176c0 -5.66667 -1.66666 -11.4167 -5 -17.25c-23.3333 -38.3333 -54.7083 -69.0417 -94.125 -92.125s-81.0417 -34.625 -124.875 -34.625c-43.8333 0 -85.4583 11.5833 -124.875 34.75s-70.7917 53.8333 -94.125 92c-3.33334 5.83333 -5 11.5833 -5 17.25
c0 5.66667 1.66667 11.4167 5 17.25c23.3334 38.1667 54.7084 68.8333 94.125 92c39.4167 23.1667 81.0417 34.75 124.875 34.75c43.8333 0 85.4583 -11.5833 124.875 -34.75s70.7917 -53.8333 94.125 -92c3.33334 -5.83333 5 -11.5833 5 -17.25z" />
    <glyph glyph-name="uniF30A" unicode="&#xf30a;" 
d="M385 192.25c0 4.5 -1.5 8.25 -4.5 11.25l-90.5 90.5l-22.75 22.75c-3 3 -6.75 4.5 -11.25 4.5s-8.25 -1.5 -11.25 -4.5l-22.75 -22.75l-90.5 -90.5c-3 -3 -4.5 -6.75 -4.5 -11.25s1.5 -8.25 4.5 -11.25l22.75 -22.75c3 -3 6.75 -4.5 11.25 -4.5s8.25 1.5 11.25 4.5
l47.25 47.25v-125.5c0 -4.33334 1.58333 -8.08334 4.75 -11.25c3.16667 -3.16667 6.91667 -4.75 11.25 -4.75h32c4.33334 0 8.08334 1.58334 11.25 4.75s4.75 6.91666 4.75 11.25v125.5l47.25 -47.25c3.16666 -3.16667 6.91666 -4.75 11.25 -4.75
s8.08334 1.58333 11.25 4.75l22.75 22.75c3 3 4.5 6.75 4.5 11.25zM448 192c0 -34.8333 -8.58334 -66.9583 -25.75 -96.375c-17.1674 -29.4167 -40.4591 -52.7083 -69.875 -69.875c-29.4167 -17.1667 -61.5417 -25.75 -96.375 -25.75
c-34.8333 0 -66.9583 8.58333 -96.375 25.75c-29.4167 17.1667 -52.7083 40.4583 -69.875 69.875c-17.1667 29.4167 -25.75 61.5417 -25.75 96.375c0 34.8333 8.58334 66.9583 25.75 96.375s40.4583 52.7083 69.875 69.875s61.5417 25.75 96.375 25.75
c34.8333 0 66.9583 -8.58334 96.375 -25.75c29.4167 -17.1673 52.7083 -40.459 69.875 -69.875c17.1667 -29.4168 25.75 -61.5418 25.75 -96.375z" />
    <glyph glyph-name="uniF2FD" unicode="&#xf2fd;" 
d="M256 448c91.3164 0 165.647 -78.8184 165.647 -175.676c0 -72.8252 -30.5693 -113.664 -55.1152 -146.522c-19.667 -26.3232 -35.2383 -47.1045 -35.2383 -78.5771v-64.0303c0 -26.0215 -20.2686 -47.1943 -45.1768 -47.1943h-60.2344
c-24.9082 0 -45.1768 21.1729 -45.1768 47.1943v63.127c0 31.7734 -16.5352 54.3623 -35.7197 80.5039c-25.5996 34.9668 -54.6338 74.6016 -54.6338 145.499c0 96.8574 74.3311 175.676 165.647 175.676zM286.117 -33.8828c8.2832 0 15.0596 7.65039 15.0596 17.0771
v49.1826h-90.3535v-49.1826c0 -9.42676 6.77637 -17.0771 15.0596 -17.0771h60.2344zM342.407 143.842c24.1543 32.2861 49.1221 65.6865 49.1221 128.482c0 80.2627 -60.8076 145.559 -135.529 145.559s-135.529 -65.2959 -135.529 -145.559
c0 -61.0488 24.8164 -94.9316 48.8203 -127.699c17.6494 -24.0938 35.7803 -48.9414 40.3584 -82.1309h92.5205c4.39746 33.3701 22.5586 57.7051 40.2373 81.3477z" />
    <glyph glyph-name="uniF318" unicode="&#xf318;" 
d="M288 0c-8.83203 0 -16 7.16797 -16 16v192c0 8.83203 7.16797 16 16 16s16 -7.16797 16 -16v-192c0 -8.83203 -7.16797 -16 -16 -16zM384 384c17.6797 0 32 -14.3203 32 -32v-32c0 -17.6641 -14.3203 -32 -32 -32v-288c0 -35.3438 -28.6562 -64 -64 -64h-224
c-35.3438 0 -64 28.6562 -64 64v288c-17.6797 0 -32 14.3359 -32 32v32c0 17.6797 14.3203 32 32 32h96v32c0 17.6797 14.3203 32 32 32h96c17.6797 0 32 -14.3203 32 -32v-32h96zM160 400v-16h96v16c0 8.83203 -7.16797 16 -16 16h-64c-8.83203 0 -16 -7.16797 -16 -16z
M352 0v288h-288v-288c0 -17.6641 14.3203 -32 32 -32h224c17.6797 0 32 14.3359 32 32zM368 320c8.83203 0 16 7.16797 16 16s-7.16797 16 -16 16h-320c-8.83203 0 -16 -7.16797 -16 -16s7.16797 -16 16 -16h320zM128 0c-8.83203 0 -16 7.16797 -16 16v192
c0 8.83203 7.16797 16 16 16s16 -7.16797 16 -16v-192c0 -8.83203 -7.16797 -16 -16 -16zM208 0c-8.83203 0 -16 7.16797 -16 16v192c0 8.83203 7.16797 16 16 16s16 -7.16797 16 -16v-192c0 -8.83203 -7.16797 -16 -16 -16z" />
    <glyph glyph-name="uniF314" unicode="&#xf314;" 
d="M480 136c0 -27.6667 -10.5833 -65.25 -31.75 -112.75c-0.5 -1.16667 -1.375 -3.16667 -2.625 -6c-1.25 -2.83333 -2.375 -5.33333 -3.375 -7.5s-2.08334 -4 -3.25 -5.5c-2 -2.83333 -4.33334 -4.25 -7 -4.25c-2.5 0 -4.45834 0.833333 -5.875 2.5
c-1.41666 1.66667 -2.125 3.75 -2.125 6.25c0 1.5 0.208344 3.70833 0.625 6.625c0.416656 2.91667 0.625 4.875 0.625 5.875c0.833344 11.3333 1.25 21.5833 1.25 30.75c0 16.8334 -1.45834 31.9167 -4.375 45.25c-2.91986 13.3333 -6.96152 24.875 -12.125 34.625
c-5.16974 9.75 -11.8364 18.1667 -20 25.25c-8.16812 7.08333 -16.9598 12.875 -26.375 17.375c-9.41666 4.5 -20.5 8.04167 -33.25 10.625s-25.5833 4.375 -38.5 5.375s-27.5417 1.5 -43.875 1.5h-56v-64c0 -4.33334 -1.58333 -8.08334 -4.75 -11.25
s-6.91667 -4.75 -11.25 -4.75s-8.08333 1.58334 -11.25 4.75l-128 128c-3.16667 3.16667 -4.75 6.91667 -4.75 11.25c-1.90735e-06 4.33334 1.58333 8.08334 4.75 11.25l128 128c3.16667 3.16666 6.91667 4.75 11.25 4.75s8.08333 -1.58334 11.25 -4.75
s4.75 -6.91666 4.75 -11.25v-64h56c118.833 0 191.75 -33.5833 218.75 -100.75c8.83334 -22.3333 13.25 -50.0833 13.25 -83.25z" />
    <glyph glyph-name="uniF31E" unicode="&#xf31e;" 
d="M448 264v-176c0 -15.333 -5.5 -28.5 -16.5 -39.5s-24.167 -16.5 -39.5 -16.5h-304c-15.333 0 -28.5 5.5 -39.5 16.5s-16.5 24.167 -16.5 39.5v240c0 15.333 5.5 28.5 16.5 39.5s24.167 16.5 39.5 16.5h80c15.333 0 28.5 -5.5 39.5 -16.5s16.5 -24.167 16.5 -39.5v-8h168
c15.333 0 28.5 -5.5 39.5 -16.5s16.5 -24.167 16.5 -39.5z" />
    <glyph glyph-name="uniF2F9" unicode="&#xf2f9;" 
d="M256 448c141.161 0 256 -114.839 256 -256s-114.839 -256 -256 -256s-256 114.839 -256 256s114.839 256 256 256zM256 -33.8828c124.566 0 225.883 101.316 225.883 225.883s-101.316 225.883 -225.883 225.883s-225.883 -101.316 -225.883 -225.883
s101.316 -225.883 225.883 -225.883zM290.876 79.9922c0 -17.1064 -13.9141 -31.0508 -31.0508 -31.0508c-17.1973 0 -31.1113 13.9443 -31.1113 31.0508c0 17.167 13.9141 31.082 31.1113 31.082c17.1367 0 31.0508 -13.8848 31.0508 -31.082zM321.114 321.054
c13.4932 -17.0156 20.2998 -39.9961 16.5645 -55.8682c-7.31836 -30.9307 -25.3584 -47.1943 -41.291 -61.5303c-16.3535 -14.7275 -28.1299 -25.2988 -28.1299 -49.6035h-30.1172c0 37.6768 20.209 55.8984 38.0684 71.9814
c13.8838 12.499 26.9854 24.3047 32.1055 46.0498c1.02344 4.30664 -1.1748 18.0703 -10.8428 30.2676c-9.24609 11.7158 -21.9258 17.6494 -37.5869 17.6494c-53.5791 0 -56.2891 -43.4902 -56.4102 -48.459l-30.1172 0.8125
c0.722656 26.8955 19.7266 77.7637 86.5273 77.7637c24.6367 0 46.3516 -10.3301 61.2295 -29.0635z" />
    <glyph glyph-name="uniF303" unicode="&#xf303;" 
d="M384 144c0 -4.33333 -1.58334 -8.08333 -4.75 -11.25l-112 -112c-3.16666 -3.16667 -6.91666 -4.75 -11.25 -4.75c-4.33333 0 -8.08333 1.58333 -11.25 4.75l-112 112c-3.16667 3.16667 -4.75 6.91667 -4.75 11.25c-7.62939e-06 4.33333 1.58333 8.08333 4.75 11.25
s6.91667 4.75 11.25 4.75h224c4.33334 0 8.08334 -1.58333 11.25 -4.75s4.75 -6.91667 4.75 -11.25zM384 240c0 -4.33333 -1.58334 -8.08333 -4.75 -11.25s-6.91666 -4.75 -11.25 -4.75h-224c-4.33333 0 -8.08333 1.58333 -11.25 4.75s-4.75 6.91667 -4.75 11.25
c-7.62939e-06 4.33333 1.58333 8.08333 4.75 11.25l112 112c3.16667 3.16666 6.91667 4.75 11.25 4.75c4.33334 0 8.08334 -1.58334 11.25 -4.75l112 -112c3.16666 -3.16667 4.75 -6.91667 4.75 -11.25z" />
    <glyph glyph-name="uniF2FF" unicode="&#xf2ff;" 
d="M467.697 361.954c17.6182 -17.6191 17.6182 -46.291 -0.0302734 -63.8799l-272.716 -272.745l-158.057 -53.1582l51.8623 159.263l272.775 272.806c17.0771 17.0459 46.8936 17.0459 63.9092 0zM93.1836 47.6162l18.5527 -18.5527l59.1211 19.8779l-58.2471 58.2773z
M131.162 131.223l63.5488 -63.5781l165.466 165.466l-63.5781 63.5488zM317.892 317.982l63.5781 -63.5488l21.9561 21.9561l-63.5781 63.5479zM446.403 319.367c5.87305 5.87305 5.87305 15.3906 -0.0292969 21.2939l-42.2559 42.2852
c-5.69141 5.69141 -15.6006 5.69141 -21.293 0l-21.6846 -21.7148l63.5781 -63.5488z" />
    <glyph glyph-name="uniF317" unicode="&#xf317;" 
d="M351.25 135.5c0 4.33333 -1.58334 8.08333 -4.75 11.25l-45.25 45.25l45.25 45.25c3.16666 3.16667 4.75 6.91667 4.75 11.25c0 4.5 -1.58334 8.33334 -4.75 11.5l-22.5 22.5c-3.16666 3.16666 -7 4.75 -11.5 4.75c-4.33334 0 -8.08334 -1.58334 -11.25 -4.75
l-45.25 -45.25l-45.25 45.25c-3.16667 3.16666 -6.91667 4.75 -11.25 4.75c-4.5 0 -8.33333 -1.58334 -11.5 -4.75l-22.5 -22.5c-3.16667 -3.16763 -4.75 -7.00096 -4.75 -11.5c0 -4.33333 1.58333 -8.08333 4.75 -11.25l45.25 -45.25l-45.25 -45.25
c-3.16667 -3.16667 -4.75 -6.91667 -4.75 -11.25c0 -4.5 1.58333 -8.33334 4.75 -11.5l22.5 -22.5c3.16667 -3.16666 7 -4.75 11.5 -4.75c4.33333 0 8.08333 1.58334 11.25 4.75l45.25 45.25l45.25 -45.25c3.16666 -3.16666 6.91666 -4.75 11.25 -4.75
c4.5 0 8.33334 1.58334 11.5 4.75l22.5 22.5c3.16666 3.16666 4.75 7 4.75 11.5zM448 192c0 -34.8333 -8.58334 -66.9583 -25.75 -96.375c-17.1674 -29.4167 -40.4591 -52.7083 -69.875 -69.875c-29.4167 -17.1667 -61.5417 -25.75 -96.375 -25.75
c-34.8333 0 -66.9583 8.58333 -96.375 25.75c-29.4167 17.1667 -52.7083 40.4583 -69.875 69.875c-17.1667 29.4167 -25.75 61.5417 -25.75 96.375c0 34.8333 8.58334 66.9583 25.75 96.375s40.4583 52.7083 69.875 69.875s61.5417 25.75 96.375 25.75
c34.8333 0 66.9583 -8.58334 96.375 -25.75c29.4167 -17.1673 52.7083 -40.459 69.875 -69.875c17.1667 -29.4168 25.75 -61.5418 25.75 -96.375z" />
    <glyph glyph-name="uniF302" unicode="&#xf302;" 
d="M500.073 -29.9072l-21.293 -21.3232l-155.799 155.799c-34.2432 -29.3643 -78.667 -47.2549 -127.217 -47.2549c-107.941 0 -195.765 87.8232 -195.765 195.765c-0.0302734 52.2852 20.3291 101.467 57.2842 138.451c37.0146 36.9541 86.1963 57.3145 138.48 57.3145
c107.941 0 195.765 -87.8232 195.765 -195.766c0 -48.5488 -17.8896 -92.9424 -47.2549 -127.187zM195.765 87.4316c91.3164 0 165.647 74.3301 165.647 165.646c0 91.3477 -74.3311 165.647 -165.647 165.647c-44.2725 0 -85.8955 -17.2275 -117.157 -48.5195
c-31.293 -31.2617 -48.5195 -72.8545 -48.4902 -117.128c0 -91.3467 74.3311 -165.646 165.647 -165.646z" />
    <glyph glyph-name="uniF310" unicode="&#xf310;" 
d="M254 120l29 29l-38 38l-29 -29v-14h24v-24h14zM364 300c-2.66666 2.66666 -5.41666 2.58334 -8.25 -0.25l-87.5 -87.5c-2.83334 -2.83333 -2.91666 -5.58333 -0.25 -8.25s5.41666 -2.58333 8.25 0.25l87.5 87.5c2.83331 2.83334 2.91666 5.58334 0.25 8.25zM384 151.5
v-47.5c0 -19.8333 -7.04166 -36.7917 -21.125 -50.875s-31.0417 -21.125 -50.875 -21.125h-208c-19.8333 0 -36.7917 7.04167 -50.875 21.125c-14.0833 14.0834 -21.125 31.0417 -21.125 50.875v208c0 19.834 7.04167 36.7923 21.125 50.875
c14.0834 14.0833 31.0417 21.125 50.875 21.125h208c10.5 0 20.25 -2.08334 29.25 -6.25c2.5 -1.17239 4 -3.08905 4.5 -5.75c0.5 -2.83334 -0.25 -5.25 -2.25 -7.25l-12.25 -12.25c-2.33334 -2.33334 -5 -3 -8 -2c-3.83334 1 -7.58334 1.5 -11.25 1.5h-208
c-11 0 -20.4167 -3.91666 -28.25 -11.75s-11.75 -17.25 -11.75 -28.25v-208c-3.8147e-06 -11 3.91666 -20.4167 11.75 -28.25s17.25 -11.75 28.25 -11.75h208c11 -3.8147e-06 20.4167 3.91666 28.25 11.75s11.75 17.25 11.75 28.25v31.5c0 2.16667 0.75 4 2.25 5.5l16 16
c2.5 2.5 5.41666 3.08333 8.75 1.75s5 -3.75 5 -7.25zM360 336l72 -72l-168 -168h-72v72zM303 135c4.66666 4.66721 7 10.3339 7 17c0 6.66728 -2.33334 12.334 -7 17l-38 38c-4.66666 4.66667 -10.3333 7 -17 7s-12.3333 -2.33333 -17 -7l-23 -23l72 -72z" />
    <glyph glyph-name="uniF2F5" unicode="&#xf2f5;" 
d="M254.614 403.064l251.151 -436.947h-499.381zM254.766 342.348l-196.639 -346.112h395.565zM271.059 118.573h-30.1172v118.604h30.1172v-118.604zM286.117 55.5371c0 -16.625 -13.4619 -30.1182 -30.1172 -30.1182s-30.1172 13.4932 -30.1172 30.1182
s13.4619 30.1172 30.1172 30.1172s30.1172 -13.4922 30.1172 -30.1172z" />
    <glyph glyph-name="uniF326" unicode="&#xf326;" 
d="M385.25 192c0 4.5 -1.5 8.25 -4.5 11.25l-22.75 22.75l-90.5 90.5c-3 3 -6.75 4.5 -11.25 4.5s-8.25 -1.5 -11.25 -4.5l-22.75 -22.75c-3 -3 -4.5 -6.75 -4.5 -11.25s1.5 -8.25 4.5 -11.25l47.25 -47.25h-125.5c-4.33333 0 -8.08333 -1.58333 -11.25 -4.75
s-4.75 -6.91667 -4.75 -11.25v-32c-7.62939e-06 -4.33333 1.58333 -8.08333 4.75 -11.25s6.91667 -4.75 11.25 -4.75h125.5l-47.25 -47.25c-3.16667 -3.16666 -4.75 -6.91666 -4.75 -11.25s1.58333 -8.08334 4.75 -11.25l22.75 -22.75c3 -3 6.75 -4.5 11.25 -4.5
s8.25 1.5 11.25 4.5l90.5 90.5l22.75 22.75c3 3 4.5 6.75 4.5 11.25zM448 192c0 -34.8333 -8.58334 -66.9583 -25.75 -96.375c-17.1674 -29.4167 -40.4591 -52.7083 -69.875 -69.875c-29.4167 -17.1667 -61.5417 -25.75 -96.375 -25.75
c-34.8333 0 -66.9583 8.58333 -96.375 25.75c-29.4167 17.1667 -52.7083 40.4583 -69.875 69.875c-17.1667 29.4167 -25.75 61.5417 -25.75 96.375c0 34.8333 8.58334 66.9583 25.75 96.375s40.4583 52.7083 69.875 69.875s61.5417 25.75 96.375 25.75
c34.8333 0 66.9583 -8.58334 96.375 -25.75c29.4167 -17.1673 52.7083 -40.459 69.875 -69.875c17.1667 -29.4168 25.75 -61.5418 25.75 -96.375z" />
    <glyph glyph-name="uniF312" unicode="&#xf312;" 
d="M368 176v32c0 4.33333 -1.58334 8.08333 -4.75 11.25s-6.91666 4.75 -11.25 4.75h-64v64c0 4.33334 -1.58334 8.08334 -4.75 11.25s-6.91666 4.75 -11.25 4.75h-32c-4.33333 0 -8.08333 -1.58334 -11.25 -4.75s-4.75 -6.91666 -4.75 -11.25v-64h-64
c-4.33333 0 -8.08333 -1.58333 -11.25 -4.75s-4.75 -6.91667 -4.75 -11.25v-32c0 -4.33333 1.58333 -8.08333 4.75 -11.25s6.91667 -4.75 11.25 -4.75h64v-64c0 -4.33334 1.58333 -8.08334 4.75 -11.25s6.91667 -4.75 11.25 -4.75h32c4.33334 0 8.08334 1.58334 11.25 4.75
s4.75 6.91666 4.75 11.25v64h64c4.33334 0 8.08334 1.58333 11.25 4.75s4.75 6.91667 4.75 11.25zM448 192c0 -34.8333 -8.58334 -66.9583 -25.75 -96.375c-17.1674 -29.4167 -40.4591 -52.7083 -69.875 -69.875c-29.4167 -17.1667 -61.5417 -25.75 -96.375 -25.75
c-34.8333 0 -66.9583 8.58333 -96.375 25.75c-29.4167 17.1667 -52.7083 40.4583 -69.875 69.875c-17.1667 29.4167 -25.75 61.5417 -25.75 96.375c0 34.8333 8.58334 66.9583 25.75 96.375s40.4583 52.7083 69.875 69.875s61.5417 25.75 96.375 25.75
c34.8333 0 66.9583 -8.58334 96.375 -25.75c29.4167 -17.1673 52.7083 -40.459 69.875 -69.875c17.1667 -29.4168 25.75 -61.5418 25.75 -96.375z" />
    <glyph glyph-name="uniF2FB" unicode="&#xf2fb;" 
d="M512 207.059c0 -66.4395 -54.0312 -120.471 -120.471 -120.471c-36.0508 0 -69.5713 16.0225 -92.582 43.7314l-0.0595703 -0.0302734l-0.421875 0.541992c-0.331055 0.421875 -0.783203 0.692383 -1.14453 1.14453l0.120117 0.0898438l-109.447 134.987
c-17.1367 19.2754 -41.7432 30.3594 -67.5234 30.3594c-49.8145 0 -90.3535 -40.5391 -90.3535 -90.3535s40.5391 -90.3525 90.3535 -90.3525c27.5576 0 53.2783 12.3477 70.5352 33.8818l0.271484 -0.210938l24.6055 30.4795l23.4316 -18.9141l-24.7861 -30.6895
l-0.301758 0.240234c-22.9795 -28.5205 -57.1328 -44.9053 -93.7559 -44.9053c-66.4395 0 -120.471 54.0312 -120.471 120.471s54.0312 120.471 120.471 120.471c33.7314 0 65.8369 -14.3662 88.6357 -39.1826l0.241211 0.180664l1.26465 -1.56641l111.375 -137.337
c17.2578 -20.8711 42.4365 -32.918 69.542 -32.918c49.8145 0 90.3535 40.5381 90.3535 90.3525s-40.5391 90.3535 -90.3535 90.3535c-25.4795 0 -49.6943 -10.9033 -66.8613 -29.7871l-28.5518 -35.3877l-23.4307 18.9141l28.5508 35.3877l-0.120117 0.0908203
c22.8896 25.9912 55.8682 40.8994 90.4131 40.8994c66.4395 0 120.471 -54.0312 120.471 -120.471z" />
    <glyph glyph-name="uniF2FE" unicode="&#xf2fe;" 
d="M0 448h512v-512h-512v512zM481.883 -33.8828v451.766h-451.766v-451.766h451.766zM120.471 139.836c-22.2266 6.53613 -38.5811 26.9258 -38.5811 51.2305s16.3545 44.6641 38.5811 51.2305v85.2324h30.1172v-85.2324
c22.2275 -6.56641 38.5811 -26.9258 38.5811 -51.2305s-16.3535 -44.6641 -38.5811 -51.2305v-83.3652h-30.1172v83.3652zM135.529 214.588c-12.9805 0 -23.5215 -10.541 -23.5215 -23.5215s10.541 -23.5215 23.5215 -23.5215s23.5225 10.5713 23.5225 23.5215
s-10.542 23.5215 -23.5225 23.5215zM240.941 203.836c-22.2266 6.53613 -38.5811 26.9258 -38.5811 51.2305s16.3545 44.6641 38.5811 51.2305v21.2324h30.1172v-21.2324c22.2266 -6.56641 38.5811 -26.9258 38.5811 -51.2305s-16.3545 -44.6641 -38.5811 -51.2305v-147.365
h-30.1172v147.365zM256 278.588c-12.9805 0 -23.5215 -10.541 -23.5215 -23.5215s10.541 -23.5518 23.5215 -23.5518s23.5215 10.6016 23.5215 23.5518s-10.541 23.5215 -23.5215 23.5215zM376.471 43.9111c-29.5752 0 -53.6396 24.0645 -53.6396 53.6396
c0 24.3057 16.3535 44.665 38.5811 51.2305v178.748h30.1172v-178.748c22.2266 -6.56543 38.5811 -26.8955 38.5811 -51.2305c0 -29.5752 -24.0645 -53.6396 -53.6396 -53.6396zM376.471 121.104c-12.9805 0 -23.5225 -10.5713 -23.5225 -23.5225
c0 -12.9502 10.5713 -23.5215 23.5225 -23.5215c12.9502 0 23.5215 10.5713 23.5215 23.5215c0 12.9512 -10.541 23.5225 -23.5215 23.5225z" />
    <glyph glyph-name="uniF31B" unicode="&#xf31b;" 
d="M343.184 230.328c-25.5482 0 -49.4369 -4.35222 -71.666 -13.0566c-22.2292 -8.70378 -39.8874 -20.4443 -52.9746 -35.2217c-13.0872 -14.778 -19.6309 -30.7458 -19.6309 -47.9033c0 -14.0261 4.47722 -27.3949 13.4316 -40.1064
c8.95442 -12.7116 21.5719 -23.7008 37.8525 -32.9678l16.3428 -9.39258l-5.07129 -18.0342c-3.00586 -11.3965 -7.38933 -22.1667 -13.1504 -32.3105c19.0358 7.88997 36.2559 18.5977 51.6602 32.123l8.07715 7.1377l10.708 -1.12695
c8.64127 -1.00195 16.7816 -1.50293 24.4209 -1.50293c25.5482 0 49.4369 4.35189 71.666 13.0557c22.2292 8.70443 39.8874 20.4453 52.9746 35.2227c13.0872 14.778 19.6309 30.7454 19.6309 47.9023c0 17.1575 -6.54361 33.1253 -19.6309 47.9033
c-13.0872 14.7773 -30.7455 26.5179 -52.9746 35.2217c-22.2292 8.70442 -46.1178 13.0566 -71.666 13.0566zM511.5 134.146c0 -21.7904 -7.51401 -41.9219 -22.542 -60.3945c-15.0287 -18.472 -35.442 -33.0618 -61.2402 -43.7695
c-25.7988 -10.7077 -53.9769 -16.0615 -84.5342 -16.0615c-8.76627 0 -17.8457 0.500977 -27.2383 1.50293c-24.7969 -21.916 -53.6012 -37.0697 -86.4131 -45.4609c-6.13606 -1.75326 -13.2744 -3.13086 -21.415 -4.13281h-0.939453
c-1.88138 0 -3.57213 0.657551 -5.07227 1.97266c-1.50261 1.3151 -2.50423 3.03711 -3.00488 5.16602v0.188477c-0.375656 0.50065 -0.407227 1.25195 -0.0947266 2.25391c0.313156 1.00195 0.438477 1.62793 0.375977 1.87793
c-0.0625 0.25065 0.219406 0.845703 0.845703 1.78516l1.12695 1.69043l1.31543 1.59668l1.50195 1.69043c0.876953 1.00195 2.81836 3.16243 5.82422 6.48145c3.0052 3.31901 5.16536 5.69857 6.48047 7.13867c1.31677 1.4401 3.25786 3.91341 5.82324 7.41992
c2.5677 3.50651 4.60286 6.69987 6.10547 9.58008c1.50261 2.88086 3.19336 6.57552 5.07227 11.084c1.87825 4.50846 3.50618 9.26725 4.88379 14.2764c-19.6621 11.1458 -35.1598 24.9219 -46.4932 41.3281c-11.334 16.4056 -17.001 34.001 -17.001 52.7861
c0 21.791 7.51399 41.9229 22.542 60.3955c15.0286 18.472 35.4421 33.0618 61.2402 43.7695c25.7988 10.7077 53.9769 16.0615 84.5342 16.0615s58.7354 -5.35384 84.5342 -16.0615c25.7986 -10.7077 46.212 -25.2975 61.2402 -43.7695
c15.028 -18.4727 22.542 -38.6045 22.542 -60.3955zM117.359 144.386l19.3799 -19.3936l-68.3154 -68.3633l-68.3154 68.3633l19.3799 19.3936l36.4824 -36.5068v85.4756h24.9062v-85.4756zM56.584 82.8389v195.239h26.0186v-195.239h-26.0186z" />
    <glyph glyph-name="uniF2FC" unicode="&#xf2fc;" 
d="M256 448c141.161 0 256 -114.839 256 -256s-114.839 -256 -256 -256s-256 114.839 -256 256s114.839 256 256 256zM256 -33.8828c124.566 0 225.883 101.316 225.883 225.883s-101.316 225.883 -225.883 225.883s-225.883 -101.316 -225.883 -225.883
s101.316 -225.883 225.883 -225.883zM271.059 75.4746h29.4854v-30.1172h-89.0879v30.1172h29.4854v133.12h-28.4912v30.1182h58.6084v-163.238zM216.396 297.833c0 16.4141 13.2812 29.6963 29.6953 29.6963c16.415 0 29.666 -13.2822 29.666 -29.6963
c0 -16.3535 -13.251 -29.6357 -29.666 -29.6357c-16.4141 0 -29.6953 13.2822 -29.6953 29.6357z" />
    <glyph glyph-name="uniF325" unicode="&#xf325;" 
d="M384 176v32c0 4.33333 -1.58334 8.08333 -4.75 11.25s-6.91666 4.75 -11.25 4.75h-125.5l47.25 47.25c3.16666 3.16666 4.75 6.91666 4.75 11.25s-1.58334 8.08334 -4.75 11.25l-22.75 22.75c-3 3 -6.75 4.5 -11.25 4.5s-8.25 -1.5 -11.25 -4.5l-90.5 -90.5
l-22.75 -22.75c-3 -3 -4.5 -6.75 -4.5 -11.25s1.5 -8.25 4.5 -11.25l22.75 -22.75l90.5 -90.5c3 -3 6.75 -4.5 11.25 -4.5s8.25 1.5 11.25 4.5l22.75 22.75c3 3 4.5 6.75 4.5 11.25s-1.5 8.25 -4.5 11.25l-47.25 47.25h125.5c4.33334 0 8.08334 1.58333 11.25 4.75
s4.75 6.91667 4.75 11.25zM448 192c0 -34.8333 -8.58334 -66.9583 -25.75 -96.375c-17.1674 -29.4167 -40.4591 -52.7083 -69.875 -69.875c-29.4167 -17.1667 -61.5417 -25.75 -96.375 -25.75c-34.8333 0 -66.9583 8.58333 -96.375 25.75
c-29.4167 17.1667 -52.7083 40.4583 -69.875 69.875c-17.1667 29.4167 -25.75 61.5417 -25.75 96.375c0 34.8333 8.58334 66.9583 25.75 96.375s40.4583 52.7083 69.875 69.875s61.5417 25.75 96.375 25.75c34.8333 0 66.9583 -8.58334 96.375 -25.75
c29.4167 -17.1673 52.7083 -40.459 69.875 -69.875c17.1667 -29.4168 25.75 -61.5418 25.75 -96.375z" />
    <glyph glyph-name="uniF2DC" unicode="&#xf2dc;" 
d="M256 336c4.41602 0 8 -3.58398 8 -8s-3.59961 -8 -8 -8c-85.2324 0 -160 -44.8643 -160 -96c0 -4.41602 -3.58398 -8 -8 -8s-8 3.58398 -8 8c0 60.7041 80.5918 112 176 112zM256 416c141.376 0 256 -85.9678 256 -192s-114.64 -192 -256 -192
c-16.9121 0 -33.3916 1.3125 -49.376 3.66406c-10.9443 -13.3125 -58.0479 -59.248 -108.048 -67.4404c0.0634766 0.176758 -2.57617 -0.223633 -4.08008 -0.223633c-8.01562 0 -14.4961 6.49609 -14.4961 14.4961c0 2.03223 0.431641 3.96777 1.18359 5.72754h-0.03125
c9.42383 16.208 30.8477 47.0889 30.8477 75.7764c0 0.463867 0.12793 0.751953 0.12793 1.18359c-67.6641 34.5605 -112.128 92.7842 -112.128 158.816c0 106.032 114.608 192 256 192zM256 64c123.504 0 224 71.7764 224 160s-100.512 160 -224 160
c-123.52 0 -224 -71.7764 -224 -160c0 -51.3125 35.3916 -100.032 94.6885 -130.304c10.7031 -5.47266 17.4395 -16.4639 17.4395 -28.4961c0 -0.879883 -0.0478516 -1.91992 -0.143555 -2.94434c-0.335938 -16.5439 -5.2168 -32.5918 -11.4561 -46.9121
c23.0234 13.6807 42.5117 32.2881 49.3594 40.624c6.12793 7.45605 15.2324 11.6807 24.7363 11.6807c1.53613 0 3.08789 -0.0800781 4.63965 -0.335938c15.0088 -2.19238 30.0645 -3.3125 44.7363 -3.3125z" />
    <glyph glyph-name="uniF31A" unicode="&#xf31a;" 
d="M341.684 230.328c-25.5482 0 -49.4369 -4.35222 -71.666 -13.0566c-22.2292 -8.70378 -39.8874 -20.4443 -52.9746 -35.2217c-13.0872 -14.778 -19.6309 -30.7458 -19.6309 -47.9033c0 -14.0261 4.47722 -27.3949 13.4316 -40.1064
c8.95442 -12.7116 21.5719 -23.7008 37.8525 -32.9678l16.3428 -9.39258l-5.07129 -18.0342c-3.00586 -11.3965 -7.38933 -22.1667 -13.1504 -32.3105c19.0358 7.88997 36.2559 18.5977 51.6602 32.123l8.07715 7.1377l10.708 -1.12695
c8.64127 -1.00195 16.7816 -1.50293 24.4209 -1.50293c25.5482 0 49.4369 4.35189 71.666 13.0557c22.2292 8.70443 39.8874 20.4453 52.9746 35.2227c13.0872 14.778 19.6309 30.7454 19.6309 47.9023c0 17.1575 -6.54361 33.1253 -19.6309 47.9033
c-13.0872 14.7773 -30.7455 26.5179 -52.9746 35.2217c-22.2292 8.70442 -46.1178 13.0566 -71.666 13.0566zM510 134.146c0 -21.7904 -7.51401 -41.9219 -22.542 -60.3945c-15.0287 -18.472 -35.442 -33.0618 -61.2402 -43.7695
c-25.7988 -10.7077 -53.9769 -16.0615 -84.5342 -16.0615c-8.76627 0 -17.8457 0.500977 -27.2383 1.50293c-24.7969 -21.916 -53.6012 -37.0697 -86.4131 -45.4609c-6.13606 -1.75326 -13.2744 -3.13086 -21.415 -4.13281h-0.939453
c-1.87981 0 -3.57056 0.657551 -5.07227 1.97266c-1.50261 1.3151 -2.50423 3.03711 -3.00488 5.16602v0.188477c-0.375656 0.50065 -0.407227 1.25195 -0.0947266 2.25391c0.313156 1.00195 0.438477 1.62793 0.375977 1.87793
c-0.0625 0.25065 0.219406 0.845703 0.845703 1.78516l1.12695 1.69043l1.31543 1.59668l1.50195 1.69043c0.876953 1.00195 2.81836 3.16243 5.82422 6.48145c3.0052 3.31901 5.16536 5.69857 6.48047 7.13867c1.31676 1.4401 3.25784 3.91341 5.82324 7.41992
c2.5677 3.50651 4.60286 6.69987 6.10547 9.58008c1.50261 2.88086 3.19336 6.57552 5.07227 11.084c1.87825 4.50846 3.50618 9.26725 4.88379 14.2764c-19.6621 11.1458 -35.1598 24.9219 -46.4932 41.3281c-11.334 16.4056 -17.001 34.001 -17.001 52.7861
c0 21.791 7.51399 41.9229 22.542 60.3955c15.0286 18.472 35.4421 33.0618 61.2402 43.7695c25.7988 10.7077 53.9769 16.0615 84.5342 16.0615s58.7354 -5.35384 84.5342 -16.0615c25.7986 -10.7077 46.212 -25.2975 61.2402 -43.7695
c15.028 -18.4727 22.542 -38.6045 22.542 -60.3955zM67.7539 280.087l68.3154 -69.3994l-19.3799 -19.6885l-36.4824 37.0605v-86.7725h-24.9053v86.7725l-36.4824 -37.0605l-19.3809 19.6885zM54.7451 53.4062v195.239h26.0186v-195.239h-26.0186z" />
    <glyph glyph-name="uniF316" unicode="&#xf316;" 
d="M404.5 85.5c0 -6.66674 -2.33334 -12.3334 -7 -17l-34 -34c-4.66803 -4.66667 -10.3347 -7 -17 -7c-6.66925 0 -12.3359 2.33333 -17 7l-73.5 73.5l-73.5 -73.5c-4.66667 -4.66667 -10.3333 -7 -17 -7s-12.3333 2.33333 -17 7l-34 34c-4.66666 4.66666 -7 10.3333 -7 17
s2.33334 12.3333 7 17l73.5 73.5l-73.5 73.5c-4.66666 4.66667 -7 10.3333 -7 17s2.33334 12.3333 7 17l34 34c4.66696 4.66666 10.3336 7 17 7c6.66733 0 12.334 -2.33334 17 -7l73.5 -73.5l73.5 73.5c4.66666 4.66666 10.3333 7 17 7s12.3333 -2.33334 17 -7l34 -34
c4.66666 -4.66772 7 -10.3344 7 -17c0 -6.66666 -2.33334 -12.3333 -7 -17l-73.5 -73.5l73.5 -73.5c4.66666 -4.66685 7 -10.3335 7 -17z" />
    <glyph glyph-name="uniF300" unicode="&#xf300;" 
d="M180.706 207.059h-180.706v180.706h30.1172v-123.753c30.5098 96.165 121.556 165.165 225.883 165.165c105.593 0 199.409 -71.0781 228.111 -172.846l-29.0039 -8.16211c-25.0576 88.8477 -106.947 150.92 -199.107 150.92
c-97.1592 -0.0302734 -181.188 -68.5479 -202.029 -161.912h126.735v-30.1182zM331.294 176.941h180.706v-180.706h-30.1172v123.724c-30.8711 -96.4375 -121.706 -165.105 -225.883 -165.105c-105.623 0 -199.439 71.0781 -228.111 172.846l29.0039 8.16113
c25.0273 -88.8467 106.887 -150.919 199.107 -150.919c97.25 0 181.157 68.4873 202.029 161.882h-126.735v30.1182z" />
    <glyph glyph-name="uniF311" unicode="&#xf311;" 
d="M416 232v-48c0 -6.66699 -2.33301 -12.333 -7 -17c-4.66992 -4.66699 -10.3369 -7 -17 -7h-104v-104c0 -6.66699 -2.33301 -12.333 -7 -17c-4.66895 -4.66699 -10.3359 -7 -17 -7h-48c-6.66699 0 -12.333 2.33301 -17 7s-7 10.333 -7 17v104h-104
c-6.66699 0 -12.334 2.33301 -17 7c-4.66699 4.66699 -7 10.334 -7 17v48c0 6.66797 2.33301 12.334 7 17c4.66699 4.66699 10.333 7 17 7h104v104c0 6.66699 2.33301 12.333 7 17c4.66797 4.66699 10.334 7 17 7h48c6.66699 0 12.333 -2.33301 17 -7
c4.66699 -4.66992 7 -10.3359 7 -17v-104h104c6.66699 0 12.333 -2.33301 17 -7s7 -10.333 7 -17z" />
    <glyph glyph-name="uniF306" unicode="&#xf306;" 
d="M288 280v-112c0 -2.33333 -0.75 -4.25 -2.25 -5.75s-3.41666 -2.25 -5.75 -2.25h-80c-2.33333 0 -4.25 0.75 -5.75 2.25s-2.25 3.41667 -2.25 5.75v16c0 2.33333 0.75 4.25 2.25 5.75s3.41667 2.25 5.75 2.25h56v88c0 2.33334 0.75 4.25 2.25 5.75
s3.41666 2.25 5.75 2.25h16c2.33334 0 4.25 -0.75 5.75 -2.25s2.25 -3.41666 2.25 -5.75zM392 192c0 24.6667 -6.08334 47.4167 -18.25 68.25c-12.1667 20.8333 -28.6667 37.3333 -49.5 49.5s-43.5833 18.25 -68.25 18.25c-24.6667 0 -47.4167 -6.08334 -68.25 -18.25
s-37.3333 -28.6667 -49.5 -49.5c-12.1667 -20.8333 -18.25 -43.5833 -18.25 -68.25s6.08334 -47.4167 18.25 -68.25c12.1667 -20.8333 28.6667 -37.3333 49.5 -49.5c20.8333 -12.1667 43.5833 -18.25 68.25 -18.25c24.6667 0 47.4167 6.08333 68.25 18.25
c20.8333 12.1667 37.3333 28.6667 49.5 49.5c12.1667 20.8333 18.25 43.5833 18.25 68.25zM448 192c0 -34.8333 -8.58334 -66.9583 -25.75 -96.375c-17.1674 -29.4167 -40.4591 -52.7083 -69.875 -69.875c-29.4167 -17.1667 -61.5417 -25.75 -96.375 -25.75
c-34.8333 0 -66.9583 8.58333 -96.375 25.75c-29.4167 17.1667 -52.7083 40.4583 -69.875 69.875c-17.1667 29.4167 -25.75 61.5417 -25.75 96.375c0 34.8333 8.58334 66.9583 25.75 96.375s40.4583 52.7083 69.875 69.875s61.5417 25.75 96.375 25.75
c34.8333 0 66.9583 -8.58334 96.375 -25.75c29.4167 -17.1673 52.7083 -40.459 69.875 -69.875c17.1667 -29.4168 25.75 -61.5418 25.75 -96.375z" />
    <glyph glyph-name="uniF31D" unicode="&#xf31d;" 
d="M291.147 448l160.617 -159.864v-352.136h-391.529v512h230.912zM301.177 395.535v-98.123h98.5752zM90.3525 -33.8828h331.295v301.177h-150.589v150.589h-180.706v-451.766z" />
    <glyph glyph-name="uniF324" unicode="&#xf324;" 
d="M452.75 214l-185.5 -185.25c-3.16666 -3.16667 -6.91666 -4.75 -11.25 -4.75c-4.33333 0 -8.08333 1.58333 -11.25 4.75l-185.5 185.25c-3.16667 3.16833 -4.75 6.96001 -4.75 11.375c0 4.41754 1.58333 8.20921 4.75 11.375l41.5 41.25
c3.16666 3.16666 6.91666 4.75 11.25 4.75s8.08334 -1.58334 11.25 -4.75l132.75 -132.75l132.75 132.75c3.16666 3.16666 6.91666 4.75 11.25 4.75s8.08334 -1.58334 11.25 -4.75l41.5 -41.25c3.16666 -3.16667 4.75 -6.95833 4.75 -11.375
s-1.58334 -8.20833 -4.75 -11.375z" />
    <glyph glyph-name="uniF307" unicode="&#xf307;" 
d="M512 -48.5801l0.331055 -15.4199h-512.692l0.361328 15.4199c1.89746 81.8604 84.9014 151.673 199.288 169.412v38.6406c-16.6846 14.9082 -28.1895 38.8818 -35.5088 59.1816c-8.94434 4.90918 -16.9863 14.3662 -22.5576 26.8652
c-9.78809 22.0459 -7.40918 43.2783 5.39062 52.3135c-0.511719 6.62598 -0.782227 13.0713 -0.782227 19.2451l-0.0908203 11.1143c-0.391602 34.2734 -0.842773 76.9199 50.7178 81.5283c0 0.150391 1.3252 2.68066 2.31934 4.54785
c7.95117 15.5107 19.8174 32.165 59.3623 33.5811l7.95117 0.150391c56.9521 0 95.6533 -21.1123 108.965 -59.4521c3.70508 -10.6621 0 -20.1191 -3.19238 -28.4609c-3.88477 -9.93945 -8.22168 -21.2334 -5.84277 -41.2012
c0.933594 -7.28809 0.391602 -14.6074 -0.451172 -21.7754c10.6006 -9.21582 13.3721 -28.3408 6.2041 -49.0615c-5.12012 -14.9688 -13.915 -26.1123 -23.9141 -31.1113c-6.89648 -18.8535 -17.4375 -40.96 -32.2559 -55.2061v-41.3818
c112.73 -18.3711 194.5 -88.0029 196.397 -168.93zM31.7441 -33.8828v-0.0292969h448.542c-11.7158 62.3135 -84.9014 114.176 -181.609 126.253l-13.1914 1.65625v82.1006l5.96289 4.51758c10.8125 8.16211 21.8652 27.5576 30.3887 53.248l3.43359 10.3008h10.8428
c-0.151367 0.481445 4.21582 4.96875 7.1377 13.6729c2.13867 6.11426 2.5 11.084 2.25879 14.2158l-13.2822 -1.44531l2.68066 24.2441c0.994141 7.55957 1.92773 14.668 1.20508 20.3301c-3.31348 27.5273 3.28223 44.5439 7.64941 55.8076
c1.14453 2.95117 2.71094 6.9873 2.71094 8.28223c-11.7461 33.5215 -55.417 38.6113 -80.3838 38.6113l-6.83691 -0.121094c-25.2988 -0.933594 -29.2139 -8.49316 -33.7324 -17.2871c-3.73438 -7.22852 -9.96875 -19.3057 -26.3828 -20.751
c-21.7451 -1.95801 -23.7324 -10.7822 -23.2803 -51.1699l0.0898438 -11.4453c0 -9.00488 0.663086 -18.6729 1.92773 -28.6113l2.89062 -22.5586l-15.3594 4.30762c0.241211 -3.10254 1.11426 -7.43945 3.37305 -12.499c3.6748 -8.28223 8.34277 -12.3184 9.93848 -12.8906
l8.85449 -1.53613l2.5 -8.46289c9.00586 -27.2266 20.9922 -47.5557 32.8281 -55.748l6.50586 -4.51758v-80.293l-13.2822 -1.56641c-98.2734 -11.5352 -172.574 -63.5488 -184.38 -126.615z" />
  </font>
</defs>
</svg>
